<?xml version="1.0" encoding="utf-8"?>
<!-- Generator: Adobe Illustrator 27.0.0, SVG Export Plug-In . SVG Version: 6.00 Build 0)  -->
<svg version="1.1" id="图层_1" xmlns="http://www.w3.org/2000/svg" xmlns:xlink="http://www.w3.org/1999/xlink" x="0px" y="0px"
	 viewBox="0 0 850.39 850.39" style="enable-background:new 0 0 850.39 850.39;" xml:space="preserve">
<style type="text/css">
	.st0{fill:url(#SVGID_1_);}
	.st1{fill:none;}
	.st2{fill:url(#SVGID_00000137818718630709204650000017633823470843686831_);}
	.st3{fill:url(#SVGID_00000183220473125941896920000016321482150270869429_);}
	.st4{fill:url(#SVGID_00000124883874798607754760000008278004924933476224_);}
	.st5{fill:url(#SVGID_00000163793831966803829800000012215273585854004354_);}
	.st6{fill:#2F709C;}
</style>
<g>
	<linearGradient id="SVGID_1_" gradientUnits="userSpaceOnUse" x1="422.5121" y1="339.4407" x2="641.9807" y2="318.7977">
		<stop  offset="0" style="stop-color:#4E95BC"/>
		<stop  offset="0.4795" style="stop-color:#1D5F94"/>
		<stop  offset="1" style="stop-color:#98B446"/>
	</linearGradient>
	<path class="st0" d="M154.99,453.68c2.95-2,5.9-4.08,8.68-6.36c78.21-67.92,193.34-149.07,293.66-172.18
		c16.66-3.73,34.05-6.02,51.22-5.33c0,0,0,0,0,0c0,0,0,0,0,0c10.82,0.43,21.56,2.06,31.99,5.25
		c100.03,23.92,97.68,105.07,86.82,152.63C779.95,243.26,432.91,70.85,154.99,453.68z"/>
	<path class="st1" d="M540.54,275.07c-10.42-3.2-21.16-4.82-31.99-5.25C520.24,270.97,530.87,272.75,540.54,275.07z"/>
	<g>
		<g>
			
				<linearGradient id="SVGID_00000044858897558518732460000013020918703732924567_" gradientUnits="userSpaceOnUse" x1="615.7012" y1="308.5524" x2="506.7179" y2="455.57">
				<stop  offset="0" style="stop-color:#4E95BC"/>
				<stop  offset="0.4795" style="stop-color:#1D5F94"/>
				<stop  offset="1" style="stop-color:#98B446"/>
			</linearGradient>
			<path style="fill:url(#SVGID_00000044858897558518732460000013020918703732924567_);" d="M568.67,330.93
				c-7.91,17.64-19.88,32.94-33.24,46.82c4.85,22.15-9.6,37.42-21.73,44.68c-1.86,12.58-10.06,29.58-32.7,32.13l-0.13,0.01
				c-1.89,0.19-3.78,0.28-5.61,0.28c-5.1,0-9.91-0.72-14.33-2.12c43.92,26.27,84.68,22.8,119.37,19.59
				c19.14-14.77,34.74-29.74,47.06-44.64c10.86-47.55,13.21-128.71-86.82-152.63c1.29,0.39,2.57,0.8,3.84,1.25
				C565.51,283.35,579.03,310.36,568.67,330.93z"/>
			
				<linearGradient id="SVGID_00000064341910899442333510000014946131696886149567_" gradientUnits="userSpaceOnUse" x1="374.9444" y1="399.1829" x2="238.3559" y2="583.44">
				<stop  offset="0" style="stop-color:#4E95BC"/>
				<stop  offset="0.4795" style="stop-color:#1D5F94"/>
				<stop  offset="1" style="stop-color:#98B446"/>
			</linearGradient>
			<path style="fill:url(#SVGID_00000064341910899442333510000014946131696886149567_);" d="M488.4,506.56
				c-36.87-7.97-71.7-15.5-96.29-31.57c-2.32-1.51-4.5-3.09-6.58-4.72c-1.77,0.45-3.55,0.85-5.35,1.16
				c-139.04-38.56-280.23,21.41-306.63,28.83c284.47-23.94,303.71,6.21,318.55,23.88h103.35c7.5-3.69,14.71-7.43,21.66-11.2
				C507.57,510.7,497.95,508.62,488.4,506.56z"/>
		</g>
		
			<linearGradient id="SVGID_00000042733830338694283660000005267438238082190261_" gradientUnits="userSpaceOnUse" x1="368.2397" y1="484.6035" x2="739.3913" y2="484.6035">
			<stop  offset="0" style="stop-color:#4E95BC"/>
			<stop  offset="0.4795" style="stop-color:#1D5F94"/>
			<stop  offset="1" style="stop-color:#98B446"/>
		</linearGradient>
		<path style="fill:url(#SVGID_00000042733830338694283660000005267438238082190261_);" d="M641.93,484.6
			c-47.88-17.15-88.91,2.37-121.95-1.22c-69.22-7.58-143.27-69.28-92.43-114.69c24.02-21.23,59.85-2.79,64.88,15.07
			c4.93,18.07-0.59,34.72-16.27,39.27c-15.36,4.53-21.91-14.12-10.58-23.1c0,0,5.28-4.87,6.27-4.87c-1.38-0.25-20.73-3-25.73,8.15
			c-7.82,20.66,5.4,44.04,33.74,41.2c24.88-2.8,24.06-28.41,24.06-28.41s29.93-12.7,20.35-40.33
			c-11.96-28.15-42.55-27.17-53.87-26.38c0.67,0-7.53-26.73-40.33-24.89c-29.46,6.84-29.52,36.25-29.52,36.49
			c0,0-25.43,8.08-29.77,29.27c-26.74,126.85,165.07,82.46,248.47,156.05c52.27,46.13,67.18,98.66,67.18,98.66l52.97-52.54
			C739.39,592.34,717.8,511.78,641.93,484.6z"/>
	</g>
	
		<linearGradient id="SVGID_00000170957487002785059580000006566440725620718480_" gradientUnits="userSpaceOnUse" x1="161.2473" y1="366.3516" x2="437.4875" y2="366.3516">
		<stop  offset="0" style="stop-color:#4E95BC"/>
		<stop  offset="0.4795" style="stop-color:#1D5F94"/>
		<stop  offset="1" style="stop-color:#98B446"/>
	</linearGradient>
	<path style="fill:url(#SVGID_00000170957487002785059580000006566440725620718480_);" d="M261.98,439.07
		c62.22-91.78,175.51-145.44,175.51-145.44C326.15,333.39,252.51,393.9,209.47,439.07H261.98z"/>
	<g>
		<path class="st6" d="M154.18,576.54v22.08h-12.39v-58.22h28.45c8.15,0,13.82,1.05,17.02,3.14c2.21,1.4,3.91,3.25,5.11,5.54
			c1.19,2.3,1.79,4.82,1.79,7.55c0,5.53-1.4,9.81-4.19,12.83c-1.75,1.8-4.04,3.17-6.9,4.1c2.27,0.81,3.98,1.67,5.15,2.57
			c1.16,0.9,2.21,2.23,3.14,3.97c0.7,1.4,1.21,2.73,1.53,4.02c0.32,1.28,0.57,3.17,0.74,5.67c0.35,4.19,0.81,7.13,1.4,8.81h-13.88
			c-0.41-1.34-0.84-4.1-1.31-8.29c-0.29-3.37-0.89-5.96-1.79-7.77c-0.9-1.8-2.26-3.23-4.06-4.28c-2.27-1.22-5.56-1.8-9.86-1.75
			H154.18z M154.18,566.16h17.37c2.91,0,4.98-0.44,6.2-1.31c1.86-1.28,2.79-3.52,2.79-6.72c0-3.55-1.4-5.82-4.19-6.81
			c-0.99-0.35-2.59-0.53-4.8-0.53h-17.37V566.16z"/>
		<path class="st6" d="M252.55,589.55v-33.43h11.7v42.51H241.2c-3.32,0-5.88-0.25-7.68-0.74c-1.8-0.5-3.4-1.38-4.8-2.66
			c-2.97-2.68-4.45-7.01-4.45-13v-26.1h11.61v27.32c0,1.92,0.51,3.42,1.53,4.49c1.02,1.08,2.4,1.62,4.15,1.62H252.55z"/>
		<path class="st6" d="M324.47,589.55v-33.43h11.7v41.64c0,5.53-1.46,9.57-4.36,12.13c-2.91,2.56-7.54,3.84-13.88,3.84h-20.86v-9.08
			h20.86c2.5,0,4.13-0.26,4.89-0.78c0.58-0.35,0.96-0.8,1.13-1.36c0.17-0.55,0.35-1.85,0.52-3.88h-10.39
			c-11.99,0.29-17.66-5.96-17.02-18.77v-23.74h11.7v22.61c0,4.42,0.39,7.33,1.18,8.73c0.79,1.4,2.43,2.1,4.93,2.1H324.47z"/>
		<path class="st6" d="M367.59,551.75v-11.35h11.7v11.35H367.59z M367.59,556.12h11.7v42.51h-11.7V556.12z"/>
		<path class="st6" d="M406.34,598.63l24.09-58.22h14.23l24.09,58.22h-14.49l-5.67-13.44H426.5l-5.67,13.44H406.34z M437.59,554.46
			l-8.29,20.34h16.58L437.59,554.46z"/>
		<path class="st6" d="M495.98,598.63v-58.22h12.39v58.22H495.98z"/>
	</g>
</g>
</svg>
